<?xml version="1.0" encoding="UTF-8" standalone="no"?>
<!-- Created with Inkscape (http://www.inkscape.org/) -->

<svg
   version="1.1"
   id="svg888"
   width="512"
   height="512"
   viewBox="0 0 512 512"
   xmlns="http://www.w3.org/2000/svg"
   xmlns:svg="http://www.w3.org/2000/svg">
  <defs
     id="defs892" />
  <g
     id="g894">
    <path
       id="path1983-3-7-3-6-3"
       style="fill:#6a462f;fill-rule:evenodd;stroke:#434c5e;stroke-width:15.2972;stroke-linecap:round;stroke-linejoin:round;stroke-miterlimit:6.725;fill-opacity:1;stroke-opacity:1"
       d="M 232.89529,98.18288 A 28.955132,28.955132 0 0 1 203.94016,127.13801 28.955132,28.955132 0 0 1 174.98503,98.18288 28.955132,28.955132 0 0 1 203.94016,69.227751 28.955132,28.955132 0 0 1 232.89529,98.18288 Z" />
    <path
       style="fill:#ebcb8b;fill-opacity:1;stroke:#434c5e;stroke-width:13.3333;stroke-linecap:butt;stroke-linejoin:miter;stroke-miterlimit:6.725;stroke-dasharray:none;stroke-opacity:1"
       d="m 152.34146,247.17789 h 103.16296 c 0,0 -1.64059,-87.93592 -13.60046,-100.86266 -11.95987,-12.92674 -38.47663,-11.63389 -38.47663,-11.63389 0,0 -29.38035,-1.32354 -41.39024,12.22615 -12.00988,13.54969 -9.69563,100.2704 -9.69563,100.2704 z"
       id="path2098-6-5-5-2-6" />
    <path
       id="path1983-3-7-3-6-3-0"
       style="fill:#f1dbc8;fill-rule:evenodd;stroke:#434c5e;stroke-width:15.2972;stroke-linecap:round;stroke-linejoin:round;stroke-miterlimit:6.725;stroke-opacity:1"
       d="M 336.05825,98.182877 A 28.955132,28.955132 0 0 1 307.10312,127.13801 28.955132,28.955132 0 0 1 278.14799,98.182877 28.955132,28.955132 0 0 1 307.10312,69.227748 28.955132,28.955132 0 0 1 336.05825,98.182877 Z" />
    <path
       style="fill:#a3be8c;fill-opacity:1;stroke:#434c5e;stroke-width:13.3333;stroke-linecap:butt;stroke-linejoin:miter;stroke-miterlimit:6.725;stroke-dasharray:none;stroke-opacity:1"
       d="m 255.50442,247.17789 h 103.16296 c 0,0 -1.64059,-87.93592 -13.60046,-100.86266 -11.95987,-12.92674 -38.47663,-11.63389 -38.47663,-11.63389 0,0 -29.38035,-1.32354 -41.39024,12.22615 -12.00988,13.54969 -9.69563,100.2704 -9.69563,100.2704 z"
       id="path2098-6-5-5-2-6-6" />
    <path
       id="path1983-3-7-3-6"
       style="fill:#f1dbc8;fill-rule:evenodd;stroke:#434c5e;stroke-width:15.2972;stroke-linecap:round;stroke-linejoin:round;stroke-miterlimit:6.725;stroke-opacity:1"
       d="m 181.29659,176.22276 a 28.955132,28.955132 0 0 1 -28.95513,28.95513 28.955132,28.955132 0 0 1 -28.95513,-28.95513 28.955132,28.955132 0 0 1 28.95513,-28.95513 28.955132,28.955132 0 0 1 28.95513,28.95513 z" />
    <path
       style="fill:#b48ead;fill-opacity:1;stroke:#434c5e;stroke-width:13.3333;stroke-linecap:butt;stroke-linejoin:miter;stroke-miterlimit:6.725;stroke-dasharray:none;stroke-opacity:1"
       d="m 100.74276,325.21777 h 103.16296 c 0,0 -1.64059,-87.93592 -13.60046,-100.86266 -11.95987,-12.92674 -38.47663,-11.63389 -38.47663,-11.63389 0,0 -29.38035,-1.32354 -41.39024,12.22615 -12.00988,13.54969 -9.69563,100.2704 -9.69563,100.2704 z"
       id="path2098-6-5-5-2" />
    <path
       id="path1983-3-7-3-6-9"
       style="fill:#a57939;fill-rule:evenodd;stroke:#434c5e;stroke-width:15.2972;stroke-linecap:round;stroke-linejoin:round;stroke-miterlimit:6.725;stroke-opacity:1"
       d="m 284.45955,176.22276 a 28.955132,28.955132 0 0 1 -28.95513,28.95513 28.955132,28.955132 0 0 1 -28.95513,-28.95513 28.955132,28.955132 0 0 1 28.95513,-28.95513 28.955132,28.955132 0 0 1 28.95513,28.95513 z" />
    <path
       style="fill:#81a1c1;fill-opacity:1;stroke:#434c5e;stroke-width:13.3333;stroke-linecap:butt;stroke-linejoin:miter;stroke-miterlimit:6.725;stroke-dasharray:none;stroke-opacity:1"
       d="m 203.90572,325.21777 h 103.16296 c 0,0 -1.64059,-87.93592 -13.60046,-100.86266 -11.95987,-12.92674 -38.47663,-11.63389 -38.47663,-11.63389 0,0 -29.38035,-1.32354 -41.39024,12.22615 -12.00988,13.54969 -9.69563,100.2704 -9.69563,100.2704 z"
       id="path2098-6-5-5-2-1" />
    <path
       id="path1983-3-7-3-6-9-0"
       style="fill:#6a462f;fill-rule:evenodd;stroke:#434c5e;stroke-width:15.2972;stroke-linecap:round;stroke-linejoin:round;stroke-miterlimit:6.725;stroke-opacity:1"
       d="m 387.62252,176.22276 a 28.955132,28.955132 0 0 1 -28.95513,28.95513 28.955132,28.955132 0 0 1 -28.95514,-28.95513 28.955132,28.955132 0 0 1 28.95514,-28.95513 28.955132,28.955132 0 0 1 28.95513,28.95513 z" />
    <path
       style="fill:#d8dee9;fill-opacity:1;stroke:#434c5e;stroke-width:13.3333;stroke-linecap:butt;stroke-linejoin:miter;stroke-miterlimit:6.725;stroke-dasharray:none;stroke-opacity:1"
       d="m 307.06868,325.21777 h 103.16296 c 0,0 -1.64059,-87.93592 -13.60046,-100.86266 -11.95987,-12.92674 -38.47663,-11.63389 -38.47663,-11.63389 0,0 -29.38035,-1.32354 -41.39024,12.22615 -12.00988,13.54969 -9.69563,100.2704 -9.69563,100.2704 z"
       id="path2098-6-5-5-2-1-9" />
    <path
       id="path1983"
       style="fill:#debb90;fill-rule:evenodd;stroke:#434c5e;stroke-width:15.2972;stroke-linecap:round;stroke-linejoin:round;stroke-miterlimit:6.725;stroke-opacity:1"
       d="m 130.21071,252.71931 a 28.955132,28.955132 0 0 1 -28.95513,28.95513 28.955132,28.955132 0 0 1 -28.95513,-28.95513 28.955132,28.955132 0 0 1 28.95513,-28.95513 28.955132,28.955132 0 0 1 28.95513,28.95513 z" />
    <path
       style="fill:#bf616a;fill-opacity:1;stroke:#434c5e;stroke-width:13.3333;stroke-linecap:butt;stroke-linejoin:miter;stroke-miterlimit:6.725;stroke-dasharray:none;stroke-opacity:1"
       d="m 49.65689,365.71432 h 103.16296 c 0,0 -1.64059,-51.93592 -13.60046,-64.86266 -11.95987,-12.92674 -38.47663,-11.63389 -38.47663,-11.63389 0,0 -29.38035,-1.32354 -41.39024,12.22615 -12.00988,13.54969 -9.69563,64.2704 -9.69563,64.2704 z"
       id="path2098" />
    <path
       id="path1983-3"
       style="fill:#6a462f;fill-rule:evenodd;stroke:#434c5e;stroke-width:15.2972;stroke-linecap:round;stroke-linejoin:round;stroke-miterlimit:6.725;stroke-opacity:1"
       d="m 233.37368,252.71931 a 28.955132,28.955132 0 0 1 -28.95513,28.95513 28.955132,28.955132 0 0 1 -28.95514,-28.95513 28.955132,28.955132 0 0 1 28.95514,-28.95513 28.955132,28.955132 0 0 1 28.95513,28.95513 z" />
    <path
       style="fill:#d08770;fill-opacity:1;stroke:#434c5e;stroke-width:13.3333;stroke-linecap:butt;stroke-linejoin:miter;stroke-miterlimit:6.725;stroke-dasharray:none;stroke-opacity:1"
       d="m 152.81985,365.71432 h 103.16296 c 0,0 -1.64059,-51.93592 -13.60046,-64.86266 -11.95987,-12.92674 -38.47663,-11.63389 -38.47663,-11.63389 0,0 -29.38035,-1.32354 -41.39024,12.22615 -12.00988,13.54969 -9.69563,64.2704 -9.69563,64.2704 z"
       id="path2098-6" />
    <path
       id="path1983-3-7"
       style="fill:#f1dbc8;fill-rule:evenodd;stroke:#434c5e;stroke-width:15.2972;stroke-linecap:round;stroke-linejoin:round;stroke-miterlimit:6.725;stroke-opacity:1"
       d="m 336.53664,252.71931 a 28.955132,28.955132 0 0 1 -28.95513,28.95513 28.955132,28.955132 0 0 1 -28.95513,-28.95513 28.955132,28.955132 0 0 1 28.95513,-28.95513 28.955132,28.955132 0 0 1 28.95513,28.95513 z" />
    <path
       style="fill:#ebcb8b;fill-opacity:1;stroke:#434c5e;stroke-width:13.3333;stroke-linecap:butt;stroke-linejoin:miter;stroke-miterlimit:6.725;stroke-dasharray:none;stroke-opacity:1"
       d="m 255.98281,365.71432 h 103.16296 c 0,0 -1.64059,-51.93592 -13.60046,-64.86266 -11.95987,-12.92674 -38.47663,-11.63389 -38.47663,-11.63389 0,0 -29.38035,-1.32354 -41.39024,12.22615 -12.00988,13.54969 -9.69563,64.2704 -9.69563,64.2704 z"
       id="path2098-6-5" />
    <path
       id="path1983-3-7-3"
       style="fill:#a57939;fill-rule:evenodd;stroke:#434c5e;stroke-width:15.2972;stroke-linecap:round;stroke-linejoin:round;stroke-miterlimit:6.725;stroke-opacity:1"
       d="m 439.6996,252.71931 a 28.955132,28.955132 0 0 1 -28.95513,28.95513 28.955132,28.955132 0 0 1 -28.95513,-28.95513 28.955132,28.955132 0 0 1 28.95513,-28.95513 28.955132,28.955132 0 0 1 28.95513,28.95513 z" />
    <path
       style="fill:#a3be8c;fill-opacity:1;stroke:#434c5e;stroke-width:13.3333;stroke-linecap:butt;stroke-linejoin:miter;stroke-miterlimit:6.725;stroke-dasharray:none;stroke-opacity:1"
       d="m 359.14577,365.71432 h 103.16296 c 0,0 -1.64059,-51.93592 -13.60046,-64.86266 -11.95987,-12.92674 -38.47663,-11.63389 -38.47663,-11.63389 0,0 -29.38035,-1.32354 -41.39024,12.22615 -12.00988,13.54969 -9.69563,64.2704 -9.69563,64.2704 z"
       id="path2098-6-5-5" />
  </g>
</svg>
