<?xml version="1.0" encoding="UTF-8" standalone="no"?>
<!-- Created with Inkscape (http://www.inkscape.org/) -->

<svg
   width="174.0901"
   height="48.961193"
   viewBox="0 0 80.87878 22.746391"
   version="1.1"
   id="svg1382"
   sodipodi:docname="motiro-ai-logo.svg"
   inkscape:version="1.1 (c68e22c387, 2021-05-23)"
   xmlns:inkscape="http://www.inkscape.org/namespaces/inkscape"
   xmlns:sodipodi="http://sodipodi.sourceforge.net/DTD/sodipodi-0.dtd"
   xmlns="http://www.w3.org/2000/svg"
   xmlns:svg="http://www.w3.org/2000/svg">
  <sodipodi:namedview
     id="namedview1384"
     pagecolor="#ffffff"
     bordercolor="#666666"
     borderopacity="1.0"
     inkscape:pageshadow="2"
     inkscape:pageopacity="0.0"
     inkscape:pagecheckerboard="true"
     inkscape:document-units="px"
     showgrid="false"
     units="px"
     inkscape:zoom="3.4671247"
     inkscape:cx="94.458673"
     inkscape:cy="-0.43263515"
     inkscape:window-width="1916"
     inkscape:window-height="1038"
     inkscape:window-x="1920"
     inkscape:window-y="40"
     inkscape:window-maximized="1"
     inkscape:current-layer="layer1"
     fit-margin-top="5"
     fit-margin-bottom="5"
     fit-margin-left="10"
     fit-margin-right="10"
     scale-x="0.46458" />
  <defs
     id="defs1379" />
  <g
     inkscape:label="Layer 1"
     inkscape:groupmode="layer"
     id="layer1"
     transform="translate(-1.5271965,-5.1588978)">
    <path
       d="m 24.862333,21.524101 q -0.733385,0 -0.733385,-0.758673 v -7.599381 q 0,-0.758674 0.758674,-0.758674 0.316114,0 0.493137,0.126445 0.189669,0.1138 0.341405,0.404626 l 2.920893,5.399228 2.920893,-5.399228 q 0.151737,-0.290825 0.328759,-0.404626 0.177024,-0.126445 0.493138,-0.126445 0.733384,0 0.733384,0.758674 v 7.599381 q 0,0.758673 -0.733384,0.758673 -0.733386,0 -0.733386,-0.758673 v -5.348649 l -2.377176,4.337085 q -0.126445,0.214956 -0.265536,0.316114 -0.139083,0.101152 -0.379337,0.101152 -0.240247,0 -0.391981,-0.101152 -0.151737,-0.113807 -0.265536,-0.316114 l -2.377178,-4.311796 v 5.32336 q 0,0.758673 -0.733384,0.758673 z"
       style="font-weight:bold;font-size:7.35404px;line-height:0.65;font-family:Nunito;-inkscape-font-specification:'Nunito Bold';word-spacing:0px;fill:#eceff4;fill-opacity:1;stroke-width:0.316114"
       id="path24632" />
    <path
       d="m 37.747117,21.54939 q -0.960987,0 -1.669082,-0.391981 -0.708096,-0.391981 -1.100077,-1.112722 -0.391981,-0.733384 -0.391981,-1.719659 0,-0.986276 0.391981,-1.707015 0.391981,-0.720742 1.100077,-1.112722 0.708095,-0.391981 1.669082,-0.391981 0.960986,0 1.669081,0.391981 0.708097,0.39198 1.100078,1.112722 0.391981,0.720739 0.391981,1.707015 0,0.986275 -0.391981,1.719659 -0.391981,0.720741 -1.100078,1.112722 -0.708095,0.391981 -1.669081,0.391981 z m 0,-1.201233 q 0.708095,0 1.138011,-0.505782 0.429914,-0.518427 0.429914,-1.517347 0,-1.011565 -0.429914,-1.504703 -0.429916,-0.505782 -1.138011,-0.505782 -0.708095,0 -1.138011,0.505782 -0.429915,0.493138 -0.429915,1.504703 0,0.99892 0.429915,1.517347 0.429916,0.505782 1.138011,0.505782 z"
       style="font-weight:bold;font-size:7.35404px;line-height:0.65;font-family:Nunito;-inkscape-font-specification:'Nunito Bold';word-spacing:0px;fill:#eceff4;fill-opacity:1;stroke-width:0.316114"
       id="path24634" />
    <path
       d="m 44.979771,21.54939 q -2.453045,0 -2.453045,-2.427754 v -2.693292 h -0.657517 q -0.632228,0 -0.632228,-0.594295 0,-0.594295 0.632228,-0.594295 h 0.657517 V 14.0891 q 0,-0.796608 0.796608,-0.796608 0.783962,0 0.783962,0.796608 v 1.150654 h 1.340323 q 0.632228,0 0.632228,0.594295 0,0.594295 -0.632228,0.594295 h -1.340323 v 2.604779 q 0,0.606939 0.265536,0.910408 0.265536,0.30347 0.859831,0.30347 0.214956,0 0.379336,-0.03793 0.164375,-0.03793 0.290825,-0.05059 0.151738,-0.01272 0.252892,0.101152 0.101152,0.101153 0.101152,0.429917 0,0.252889 -0.08851,0.455203 -0.07588,0.189669 -0.290825,0.265536 -0.164375,0.05058 -0.429917,0.08852 -0.265536,0.05058 -0.467848,0.05058 z"
       style="font-weight:bold;font-size:7.35404px;line-height:0.65;font-family:Nunito;-inkscape-font-specification:'Nunito Bold';word-spacing:0px;fill:#eceff4;fill-opacity:1;stroke-width:0.316114"
       id="path24636" />
    <path
       d="m 47.95121,13.975299 q -0.442559,0 -0.695451,-0.214958 -0.240247,-0.227602 -0.240247,-0.619583 0,-0.404626 0.240247,-0.619584 0.252892,-0.214957 0.695451,-0.214957 0.935697,0 0.935697,0.834541 0,0.834541 -0.935697,0.834541 z m 0,7.536158 q -0.379337,0 -0.58165,-0.227603 -0.202314,-0.227601 -0.202314,-0.632228 v -4.640552 q 0,-0.859831 0.783964,-0.859831 0.796608,0 0.796608,0.859831 v 4.640552 q 0,0.404627 -0.202314,0.632228 -0.202313,0.227603 -0.594294,0.227603 z"
       style="font-weight:bold;font-size:7.35404px;line-height:0.65;font-family:Nunito;-inkscape-font-specification:'Nunito Bold';word-spacing:0px;fill:#eceff4;fill-opacity:1;stroke-width:0.316114"
       id="path24638" />
    <path
       d="m 51.200853,21.524101 q -0.809253,0 -0.809253,-0.809251 v -4.779645 q 0,-0.796606 0.771319,-0.796606 0.771318,0 0.771318,0.796606 v 0.391983 q 0.455203,-1.087434 1.947262,-1.213878 0.543716,-0.06322 0.606939,0.619583 0.06322,0.670162 -0.657517,0.746029 l -0.278181,0.02529 q -1.555281,0.151737 -1.555281,1.593215 v 2.617425 q 0,0.809251 -0.796606,0.809251 z"
       style="font-weight:bold;font-size:7.35404px;line-height:0.65;font-family:Nunito;-inkscape-font-specification:'Nunito Bold';word-spacing:0px;fill:#eceff4;fill-opacity:1;stroke-width:0.316114"
       id="path24640" />
    <path
       d="m 58.06681,21.54939 q -0.960986,0 -1.669081,-0.391981 -0.708097,-0.391981 -1.100078,-1.112722 -0.391981,-0.733384 -0.391981,-1.719659 0,-0.986276 0.391981,-1.707015 0.391981,-0.720742 1.100078,-1.112722 0.708095,-0.391981 1.669081,-0.391981 0.960987,0 1.669082,0.391981 0.708095,0.39198 1.100077,1.112722 0.391981,0.720739 0.391981,1.707015 0,0.986275 -0.391981,1.719659 -0.391982,0.720741 -1.100077,1.112722 -0.708095,0.391981 -1.669082,0.391981 z m 0,-1.201233 q 0.708095,0 1.138011,-0.505782 0.429915,-0.518427 0.429915,-1.517347 0,-1.011565 -0.429915,-1.504703 -0.429916,-0.505782 -1.138011,-0.505782 -0.708095,0 -1.138011,0.505782 -0.429914,0.493138 -0.429914,1.504703 0,0.99892 0.429914,1.517347 0.429916,0.505782 1.138011,0.505782 z"
       style="font-weight:bold;font-size:7.35404px;line-height:0.65;font-family:Nunito;-inkscape-font-specification:'Nunito Bold';word-spacing:0px;fill:#eceff4;fill-opacity:1;stroke-width:0.316114"
       id="path24642" />
    <path
       d="m 66.197241,21.524101 q -0.442561,0 -0.632228,-0.303469 -0.189669,-0.30347 0.01272,-0.733384 l 3.338163,-7.397069 q 0.164375,-0.366692 0.391983,-0.518427 0.240245,-0.16438 0.543715,-0.16438 0.290825,0 0.518428,0.16438 0.240247,0.151736 0.404625,0.518427 l 3.350809,7.397069 q 0.202314,0.442559 0.02529,0.746028 -0.177025,0.290825 -0.606939,0.290825 -0.354048,0 -0.556361,-0.164375 -0.189668,-0.177024 -0.341403,-0.531072 L 72.01382,19.361885 h -4.349729 l -0.619583,1.466769 q -0.164375,0.366692 -0.341403,0.531072 -0.177023,0.164375 -0.505782,0.164375 z m 3.628988,-7.257978 -1.605859,3.806013 h 3.237007 l -1.605859,-3.806013 z"
       style="font-weight:bold;font-size:7.35404px;line-height:0.65;font-family:Nunito;-inkscape-font-specification:'Nunito Bold';word-spacing:0px;fill:#eceff4;fill-opacity:1;stroke-width:0.316114"
       id="path24644" />
    <path
       d="m 76.325529,21.524101 q -0.809251,0 -0.809251,-0.83454 v -7.447647 q 0,-0.834541 0.809251,-0.834541 0.809252,0 0.809252,0.834541 v 7.447647 q 0,0.83454 -0.809252,0.83454 z"
       style="font-weight:bold;font-size:7.35404px;line-height:0.65;font-family:Nunito;-inkscape-font-specification:'Nunito Bold';word-spacing:0px;fill:#eceff4;fill-opacity:1;stroke-width:0.316114"
       id="path24646" />
    <g
       id="g12922"
       transform="matrix(0.05917772,0,0,0.05917772,12.353984,15.282963)">
      <path
         id="path5833-6-2"
         style="fill:none;stroke:#eceff4;stroke-width:18.5208;stroke-linecap:round;stroke-linejoin:round;stroke-miterlimit:9.45;stroke-dasharray:none;stroke-opacity:1;paint-order:normal"
         d="M -84.6194,-78.59039 2.0997,64.63001 -84.6194,120.80659 M 89.3526,-78.59039 2.0997,64.63001 89.3526,120.80659 m -173.972,-199.39698 86.986,-50.2213 86.986,50.2213 v 199.39698 l -86.986,50.22133 -86.986,-50.22133 z" />
    </g>
    <path
       style="fill:none;stroke:#87c0d0;stroke-width:1.09602;stroke-linecap:butt;stroke-linejoin:round;stroke-miterlimit:9.45;stroke-dasharray:none;stroke-opacity:1"
       d="M 7.3464008,10.632163 12.478239,19.10762 17.641667,10.632163 12.494034,7.6601809 Z M 12.494028,7.6601809 12.478239,19.10762"
       id="path6114-9" />
  </g>
</svg>
