<?xml version="1.0" encoding="UTF-8" standalone="no"?>
<svg
   id="emoji"
   viewBox="0 0 72 72"
   version="1.1"
   xmlns="http://www.w3.org/2000/svg"
   xmlns:svg="http://www.w3.org/2000/svg">
  <defs
     id="defs71650" />
  <path
     fill="#b1cc33"
     stroke="#b1cc33"
     stroke-linejoin="round"
     stroke-width="2"
     d="M 45,37 53,27 V 58 H 45 Z"
     id="path71607"
     style="stroke:#a3be8c;stroke-opacity:1;fill:#a3be8c;fill-opacity:1" />
  <path
     fill="#ea5a47"
     stroke="#ea5a47"
     stroke-linejoin="round"
     stroke-width="2"
     d="M 34,34.5 27.95,27 H 12 v 31 h 22 z"
     id="path71609"
     style="fill:#bf616a;fill-opacity:1;stroke:#bf616a;stroke-opacity:1" />
  <rect
     x="37"
     y="37"
     width="5"
     height="21"
     fill="#fcea2b"
     stroke="#fcea2b"
     stroke-linejoin="round"
     stroke-width="2"
     id="rect71611"
     style="stroke:#ebcb8b;stroke-opacity:1;fill:#ebcb8b;fill-opacity:1" />
  <rect
     x="36"
     y="23"
     width="8"
     height="14"
     fill="#fcea2b"
     stroke="#fcea2b"
     stroke-linejoin="round"
     stroke-width="2"
     id="rect71613"
     style="fill:#ebcb8b;fill-opacity:1;stroke:#ebcb8b;stroke-opacity:1" />
  <rect
     x="47"
     y="18"
     width="4"
     height="15"
     fill="#b1cc33"
     stroke="#b1cc33"
     stroke-linejoin="round"
     stroke-width="2"
     id="rect71615"
     style="fill:#a3be8c;fill-opacity:1;stroke:#a3be8c;stroke-opacity:1" />
  <rect
     width="4"
     height="12"
     transform="scale(-1,1)"
     fill="#ea5a47"
     stroke="#ea5a47"
     stroke-linejoin="round"
     stroke-width="2"
     id="rect71617"
     x="-33"
     y="21"
     style="fill:#bf616a;fill-opacity:1;stroke:#bf616a;stroke-opacity:1" />
  <path
     fill="#d0cfce"
     d="m 48.1011,12.2829 c -3.2684,-2.0837 -7.1512,-2.77169 -10.9373,-1.9372 -3.785,0.8366 -7.0182,3.097 -9.1041,6.3645 -4.3036,6.746 -2.3176,15.7369 4.4283,20.0415 6.745,4.3047 15.7348,2.3197 20.0415,-4.4273 2.0849,-3.2675 2.7728,-7.1524 1.9362,-10.9374 -0.8366,-3.7851 -3.096,-7.0182 -6.3646,-9.1041 z m 1.8363,18.3876 c -2.1788,3.4147 -5.8819,5.2814 -9.6611,5.2814 -2.1045,9e-4 -4.2319,-0.5785 -6.1343,-1.7924 -5.3172,-3.3926 -6.8818,-10.4791 -3.4892,-15.7954 1.6436,-2.5754 4.1915,-4.3576 7.1747,-5.0159 2.9841,-0.6584 6.0444,-0.1176 8.6208,1.5269 2.5755,1.6426 4.3567,4.1905 5.016,7.1747 0.6593,2.9831 0.1166,6.0443 -1.5269,8.6207 z"
     id="path71619" />
  <path
     fill="#3f3f3f"
     d="m 27.7666,38.3066 -6.918,10.335 -3.7106,5.8155 c -0.4778,0.75 0.3797,3.2105 1.1294,3.6888 0.3613,0.2305 2.5325,0.011 2.5325,0.011 L 32.3237,40.9646 Z"
     id="path71621" />
  <rect
     x="56"
     y="30"
     width="4"
     height="28"
     fill="#92d3f5"
     stroke="#92d3f5"
     stroke-linejoin="round"
     stroke-width="2"
     id="rect71623"
     style="stroke:#5e81ac;stroke-opacity:1;fill:#5e81ac;fill-opacity:1" />
  <path
     fill="none"
     stroke="#000000"
     stroke-linecap="round"
     stroke-linejoin="round"
     stroke-width="2"
     d="M 34,44.5 V 58 H 25.0952 M 23,27 H 12 v 31 h 3.1429"
     id="path71626"
     style="stroke:#434c5e;stroke-opacity:1" />
  <path
     fill="none"
     stroke="#000000"
     stroke-linecap="round"
     stroke-linejoin="round"
     stroke-width="2"
     d="m 36,32 v -9 h 8 v 9"
     id="path71628"
     style="stroke:#434c5e;stroke-opacity:1" />
  <path
     fill="none"
     stroke="#000000"
     stroke-linecap="round"
     stroke-width="2"
     d="M 47,19.5 V 30"
     id="path71630"
     style="stroke:#434c5e;stroke-opacity:1" />
  <path
     fill="none"
     stroke="#000000"
     stroke-linecap="round"
     stroke-linejoin="round"
     stroke-width="2"
     d="m 37,41 v 17 h 5 V 41"
     id="path71632"
     style="stroke:#434c5e;stroke-opacity:1" />
  <path
     fill="none"
     stroke="#000000"
     stroke-linecap="round"
     stroke-linejoin="round"
     stroke-width="2"
     d="M 45,40.6531 V 58 h 8 V 36"
     id="path71634"
     style="stroke:#434c5e;stroke-opacity:1" />
  <path
     fill="none"
     stroke="#000000"
     stroke-linecap="round"
     stroke-linejoin="round"
     stroke-width="2"
     d="m 57,30 h 3 V 58 H 56 V 44 33"
     id="path71636"
     style="stroke:#434c5e;stroke-opacity:1" />
  <path
     fill="none"
     stroke="#000000"
     stroke-linecap="round"
     stroke-linejoin="round"
     stroke-miterlimit="10"
     stroke-width="2"
     d="m 52.5371,32.0666 c 4.3067,-6.5674 2.3264,-15.2885 -4.4231,-19.479 -6.7495,-4.19051 -15.7124,-2.2637 -20.0191,4.3038 -4.3067,6.5674 -2.3264,15.2884 4.4231,19.4789 6.7495,4.1905 15.7124,2.2637 20.0191,-4.3037 z"
     id="path71638"
     style="stroke:#434c5e;stroke-opacity:1" />
  <path
     fill="none"
     stroke="#000000"
     stroke-linecap="round"
     stroke-linejoin="round"
     stroke-miterlimit="10"
     stroke-width="2"
     d="m 49.6385,30.2669 c 3.2853,-5.0098 1.7748,-11.6625 -3.3739,-14.8591 -5.1487,-3.1966 -11.9858,-1.7267 -15.2711,3.2831 -3.2853,5.0098 -1.7747,11.6624 3.374,14.8591 5.1487,3.1966 11.9858,1.7267 15.271,-3.2831 z"
     id="path71640"
     style="stroke:#434c5e;stroke-opacity:1" />
  <path
     fill="none"
     stroke="#000000"
     stroke-linecap="round"
     stroke-linejoin="round"
     stroke-miterlimit="10"
     stroke-width="2"
     d="m 27.777,38.444 4.3636,2.709 -10.3955,15.853 c -0.7427,1.1326 -2.3216,1.4442 -3.5265,0.6962 -1.205,-0.7481 -1.5798,-2.2726 -0.8371,-3.4053 z"
     id="path71642"
     style="stroke:#434c5e;stroke-opacity:1;stroke-width:1.5;stroke-miterlimit:10;stroke-dasharray:none" />
  <path
     fill="none"
     stroke="#000000"
     stroke-linecap="round"
     stroke-width="2"
     d="m 33,21 v 8"
     id="path71644"
     style="stroke:#434c5e;stroke-opacity:1" />
</svg>
